<?xml version="1.0" encoding="utf-8"?>
<!-- Generator: Adobe Illustrator 16.0.3, SVG Export Plug-In . SVG Version: 6.00 Build 0)  -->
<!DOCTYPE svg PUBLIC "-//W3C//DTD SVG 1.1//EN" "http://www.w3.org/Graphics/SVG/1.1/DTD/svg11.dtd">
<svg version="1.1" id="Capa_1" xmlns="http://www.w3.org/2000/svg" xmlns:xlink="http://www.w3.org/1999/xlink" x="0px" y="0px"
	 width="595.279px" height="595.28px" viewBox="0 123.305 595.279 595.28" enable-background="new 0 123.305 595.279 595.28"
	 xml:space="preserve">
<path d="M510.24,123.305c46.904,0,85.039,38.069,85.039,85.04v425.2c0,46.905-38.135,85.04-85.039,85.04H85.04
	C38.069,718.585,0,680.45,0,633.545v-425.2c0-46.971,38.068-85.04,85.04-85.04H510.24z M297.64,569.766
	c17.673,0,31.89-14.218,31.89-31.891v-85.04h85.04c17.673,0,31.891-14.218,31.891-31.89c0-17.673-14.218-31.89-31.891-31.89h-85.04
	v-85.04c0-17.672-14.217-31.89-31.89-31.89c-17.672,0-31.89,14.218-31.89,31.89v85.04h-85.04c-17.673,0-31.891,14.217-31.891,31.89
	c0,17.672,14.218,31.89,31.891,31.89h85.04v85.04C265.75,555.548,279.968,569.766,297.64,569.766z"/>
</svg>
