<?xml version="1.0" encoding="utf-8"?>
<!-- Generator: Adobe Illustrator 16.0.3, SVG Export Plug-In . SVG Version: 6.00 Build 0)  -->
<!DOCTYPE svg PUBLIC "-//W3C//DTD SVG 1.1//EN" "http://www.w3.org/Graphics/SVG/1.1/DTD/svg11.dtd">
<svg version="1.1" id="Capa_1" xmlns="http://www.w3.org/2000/svg" xmlns:xlink="http://www.w3.org/1999/xlink" x="0px" y="0px"
	 width="589.147px" height="589.17px" viewBox="0 129.415 589.147 589.17" enable-background="new 0 129.415 589.147 589.17"
	 xml:space="preserve">
<path d="M570.05,170.276c25.463,25.427,25.463,66.655,0,92.083l-34.88,34.996L421.231,183.438l34.995-34.949
	c25.463-25.432,66.621-25.432,92.083,0L570.05,170.276z M200.442,404.319l194.513-194.583l113.94,113.894L314.266,518.144
	c-7.092,7.208-15.812,12.557-25.462,15.812L185.56,568.37c-11.045,3.255-21.044,0.697-28.602-7.79
	c-7.44-6.511-9.998-17.556-6.743-27.555l34.415-103.244C187.885,420.131,193.234,411.411,200.442,404.319L200.442,404.319z
	 M223.23,196.668c20.579,0,37.205,17.708,37.205,37.205c0,21.625-16.626,37.205-37.205,37.205H111.615
	c-20.545,0-37.205,17.672-37.205,37.205V606.97c0,20.579,16.66,37.205,37.205,37.205h297.64c20.579,0,37.205-16.626,37.205-37.205
	V494.309c0-19.532,16.626-37.205,37.205-37.205s37.205,17.673,37.205,37.205V606.97c0,61.621-49.994,111.615-111.615,111.615
	h-297.64C49.971,718.585,0,668.591,0,606.97V308.284c0-61.621,49.971-111.615,111.615-111.615H223.23z"/>
</svg>
